{
	"asset":{
		"generator":"Khronos glTF Blender I/O v5.0.21",
		"version":"2.0"
	},
	"scene":0,
	"scenes":[
		{
			"name":"Scene",
			"nodes":[
				0,
				1,
				2,
				3,
				4,
				5
			]
		}
	],
	"nodes":[
		{
			"mesh":0,
			"name":"Cylinder"
		},
		{
			"mesh":1,
			"name":"Cylinder.001"
		},
		{
			"mesh":2,
			"name":"Cube"
		},
		{
			"mesh":3,
			"name":"statue"
		},
		{
			"mesh":4,
			"name":"Plane"
		},
		{
			"mesh":5,
			"name":"Plane.001"
		}
	],
"materials":[
    {
        "doubleSided":true,
        "emissiveFactor":[0,0,0],
        "name":"pillar",
        "pbrMetallicRoughness":{
            "baseColorFactor":[1,1,1,1],
            "baseColorTexture":{
                "index":0
            }
        }
    },
    {
        "doubleSided":true,
        "emissiveFactor":[0,0,0],
        "name":"Material.002",
        "pbrMetallicRoughness":{
            "baseColorFactor":[1,1,1,1],
            "baseColorTexture":{
                "index":1
            }
        }
    },
    {
        "doubleSided":true,
        "emissiveFactor":[0,0,0],
        "name":"Material.001",
        "pbrMetallicRoughness":{
            "baseColorFactor":[1,1,1,1],
            "baseColorTexture":{
                "index":2
            }
        }
    }
],
	"meshes":[
		{
			"name":"Cylinder",
			"primitives":[
				{
					"attributes":{
						"POSITION":0,
						"NORMAL":1,
						"TEXCOORD_0":2
					},
					"indices":3,
					"material":0
				}
			]
		},
		{
			"name":"Cylinder.001",
			"primitives":[
				{
					"attributes":{
						"POSITION":4,
						"NORMAL":5,
						"TEXCOORD_0":6
					},
					"indices":3,
					"material":0
				}
			]
		},
		{
			"name":"Cube",
			"primitives":[
				{
					"attributes":{
						"POSITION":7,
						"NORMAL":8,
						"TEXCOORD_0":9
					},
					"indices":10,
					"material":1
				}
			]
		},
		{
			"name":"Cube.001",
			"primitives":[
				{
					"attributes":{
						"POSITION":11,
						"NORMAL":12,
						"TEXCOORD_0":13
					},
					"indices":14,
					"material":2
				}
			]
		},
		{
			"name":"Plane",
			"primitives":[
				{
					"attributes":{
						"POSITION":15,
						"NORMAL":16,
						"TEXCOORD_0":17
					},
					"indices":18,
					"material":2
				}
			]
		},
		{
			"name":"Plane.001",
			"primitives":[
				{
					"attributes":{
						"POSITION":19,
						"NORMAL":20,
						"TEXCOORD_0":21
					},
					"indices":18,
					"material":0
				}
			]
		}
	],
	"textures":[
		{
			"sampler":0,
			"source":0
		},
		{
			"sampler":0,
			"source":1
		},
		{
			"sampler":0,
			"source":1
		}
	],
	"images":[
		{
			"mimeType":"image/png",
			"name":"pillar",
			"uri":"pillar.png"
		},
		{
			"mimeType":"image/png",
			"name":"statue n grave",
			"uri":"statue%20n%20grave.png"
		}
	],
	"accessors":[
		{
			"bufferView":0,
			"componentType":5126,
			"count":91,
			"max":[
				-2.1475141048431396,
				6.016193389892578,
				1.0636430978775024
			],
			"min":[
				-3.8795650005340576,
				-0.019225120544433594,
				-1
			],
			"type":"VEC3"
		},
		{
			"bufferView":1,
			"componentType":5126,
			"count":91,
			"type":"VEC3"
		},
		{
			"bufferView":2,
			"componentType":5126,
			"count":91,
			"type":"VEC2"
		},
		{
			"bufferView":3,
			"componentType":5123,
			"count":144,
			"type":"SCALAR"
		},
		{
			"bufferView":4,
			"componentType":5126,
			"count":91,
			"max":[
				3.8529810905456543,
				6.016193389892578,
				1.0636430978775024
			],
			"min":[
				2.1209301948547363,
				-0.019225120544433594,
				-1
			],
			"type":"VEC3"
		},
		{
			"bufferView":5,
			"componentType":5126,
			"count":91,
			"type":"VEC3"
		},
		{
			"bufferView":6,
			"componentType":5126,
			"count":91,
			"type":"VEC2"
		},
		{
			"bufferView":7,
			"componentType":5126,
			"count":94,
			"max":[
				2.4249019622802734,
				1.9568296670913696,
				1.2066088914871216
			],
			"min":[
				-2.4249019622802734,
				0.007826805114746094,
				-1.2066088914871216
			],
			"type":"VEC3"
		},
		{
			"bufferView":8,
			"componentType":5126,
			"count":94,
			"type":"VEC3"
		},
		{
			"bufferView":9,
			"componentType":5126,
			"count":94,
			"type":"VEC2"
		},
		{
			"bufferView":10,
			"componentType":5123,
			"count":192,
			"type":"SCALAR"
		},
		{
			"bufferView":11,
			"componentType":5126,
			"count":436,
			"max":[
				1.4581024646759033,
				5.544934272766113,
				1.2578784227371216
			],
			"min":[
				-1.4441630840301514,
				1.994207739830017,
				-0.4814962148666382
			],
			"type":"VEC3"
		},
		{
			"bufferView":12,
			"componentType":5126,
			"count":436,
			"type":"VEC3"
		},
		{
			"bufferView":13,
			"componentType":5126,
			"count":436,
			"type":"VEC2"
		},
		{
			"bufferView":14,
			"componentType":5123,
			"count":648,
			"type":"SCALAR"
		},
		{
			"bufferView":15,
			"componentType":5126,
			"count":4,
			"max":[
				10,
				0,
				10
			],
			"min":[
				-10,
				0,
				-10
			],
			"type":"VEC3"
		},
		{
			"bufferView":16,
			"componentType":5126,
			"count":4,
			"type":"VEC3"
		},
		{
			"bufferView":17,
			"componentType":5126,
			"count":4,
			"type":"VEC2"
		},
		{
			"bufferView":18,
			"componentType":5123,
			"count":6,
			"type":"SCALAR"
		},
		{
			"bufferView":19,
			"componentType":5126,
			"count":4,
			"max":[
				10,
				10,
				-10
			],
			"min":[
				-10,
				-5.960464477539062e-07,
				-10
			],
			"type":"VEC3"
		},
		{
			"bufferView":20,
			"componentType":5126,
			"count":4,
			"type":"VEC3"
		},
		{
			"bufferView":21,
			"componentType":5126,
			"count":4,
			"type":"VEC2"
		}
	],
	"bufferViews":[
		{
			"buffer":0,
			"byteLength":1092,
			"byteOffset":0,
			"target":34962
		},
		{
			"buffer":0,
			"byteLength":1092,
			"byteOffset":1092,
			"target":34962
		},
		{
			"buffer":0,
			"byteLength":728,
			"byteOffset":2184,
			"target":34962
		},
		{
			"buffer":0,
			"byteLength":288,
			"byteOffset":2912,
			"target":34963
		},
		{
			"buffer":0,
			"byteLength":1092,
			"byteOffset":3200,
			"target":34962
		},
		{
			"buffer":0,
			"byteLength":1092,
			"byteOffset":4292,
			"target":34962
		},
		{
			"buffer":0,
			"byteLength":728,
			"byteOffset":5384,
			"target":34962
		},
		{
			"buffer":0,
			"byteLength":1128,
			"byteOffset":6112,
			"target":34962
		},
		{
			"buffer":0,
			"byteLength":1128,
			"byteOffset":7240,
			"target":34962
		},
		{
			"buffer":0,
			"byteLength":752,
			"byteOffset":8368,
			"target":34962
		},
		{
			"buffer":0,
			"byteLength":384,
			"byteOffset":9120,
			"target":34963
		},
		{
			"buffer":0,
			"byteLength":5232,
			"byteOffset":9504,
			"target":34962
		},
		{
			"buffer":0,
			"byteLength":5232,
			"byteOffset":14736,
			"target":34962
		},
		{
			"buffer":0,
			"byteLength":3488,
			"byteOffset":19968,
			"target":34962
		},
		{
			"buffer":0,
			"byteLength":1296,
			"byteOffset":23456,
			"target":34963
		},
		{
			"buffer":0,
			"byteLength":48,
			"byteOffset":24752,
			"target":34962
		},
		{
			"buffer":0,
			"byteLength":48,
			"byteOffset":24800,
			"target":34962
		},
		{
			"buffer":0,
			"byteLength":32,
			"byteOffset":24848,
			"target":34962
		},
		{
			"buffer":0,
			"byteLength":12,
			"byteOffset":24880,
			"target":34963
		},
		{
			"buffer":0,
			"byteLength":48,
			"byteOffset":24892,
			"target":34962
		},
		{
			"buffer":0,
			"byteLength":48,
			"byteOffset":24940,
			"target":34962
		},
		{
			"buffer":0,
			"byteLength":32,
			"byteOffset":24988,
			"target":34962
		}
	],
	"samplers":[
		{
			"magFilter":9728,
			"minFilter":9984
		}
	],
	"buffers":[
		{
			"byteLength":25020,
			"uri":"shrine.bin"
		}
	]
}
