{
	"asset":{
		"generator":"Khronos glTF Blender I/O v5.0.21",
		"version":"2.0"
	},
	"scene":0,
	"scenes":[
		{
			"name":"Scene",
			"nodes":[
				0,
				1
			]
		}
	],
	"nodes":[
		{
			"mesh":0,
			"name":"Object_2"
		},
		{
			"mesh":1,
			"name":"Plane"
		}
	],
	"materials":[
		{
			"doubleSided":true,
			"name":"Material.001",
			"pbrMetallicRoughness":{
				"baseColorTexture":{
					"index":0
				},
				"metallicFactor":0,
				"roughnessFactor":0.5
			}
		}
	],
	"meshes":[
		{
			"name":"Object_0",
			"primitives":[
				{
					"attributes":{
						"POSITION":0,
						"NORMAL":1,
						"TEXCOORD_0":2
					},
					"indices":3,
					"material":0
				}
			]
		},
		{
			"name":"Plane",
			"primitives":[
				{
					"attributes":{
						"POSITION":4,
						"NORMAL":5,
						"TEXCOORD_0":6
					},
					"indices":7,
					"material":0
				}
			]
		}
	],
	"textures":[
		{
			"sampler":0,
			"source":0
		}
	],
	"images":[
		{
			"mimeType":"image/jpeg",
			"name":"Scene_-_Root_baseColor",
			"uri":"Scene_-_Root_baseColor.jpg"
		}
	],
	"accessors":[
		{
			"bufferView":0,
			"componentType":5126,
			"count":1310,
			"max":[
				3.8537757396698,
				5.6133527755737305,
				2.0964016914367676
			],
			"min":[
				-1.3738117218017578,
				-4.08804908147431e-07,
				-2.0964040756225586
			],
			"type":"VEC3"
		},
		{
			"bufferView":1,
			"componentType":5126,
			"count":1310,
			"type":"VEC3"
		},
		{
			"bufferView":2,
			"componentType":5126,
			"count":1310,
			"type":"VEC2"
		},
		{
			"bufferView":3,
			"componentType":5123,
			"count":2094,
			"type":"SCALAR"
		},
		{
			"bufferView":4,
			"componentType":5126,
			"count":4,
			"max":[
				10,
				0,
				10
			],
			"min":[
				-10,
				0,
				-10
			],
			"type":"VEC3"
		},
		{
			"bufferView":5,
			"componentType":5126,
			"count":4,
			"type":"VEC3"
		},
		{
			"bufferView":6,
			"componentType":5126,
			"count":4,
			"type":"VEC2"
		},
		{
			"bufferView":7,
			"componentType":5123,
			"count":6,
			"type":"SCALAR"
		}
	],
	"bufferViews":[
		{
			"buffer":0,
			"byteLength":15720,
			"byteOffset":0,
			"target":34962
		},
		{
			"buffer":0,
			"byteLength":15720,
			"byteOffset":15720,
			"target":34962
		},
		{
			"buffer":0,
			"byteLength":10480,
			"byteOffset":31440,
			"target":34962
		},
		{
			"buffer":0,
			"byteLength":4188,
			"byteOffset":41920,
			"target":34963
		},
		{
			"buffer":0,
			"byteLength":48,
			"byteOffset":46108,
			"target":34962
		},
		{
			"buffer":0,
			"byteLength":48,
			"byteOffset":46156,
			"target":34962
		},
		{
			"buffer":0,
			"byteLength":32,
			"byteOffset":46204,
			"target":34962
		},
		{
			"buffer":0,
			"byteLength":12,
			"byteOffset":46236,
			"target":34963
		}
	],
	"samplers":[
		{
			"magFilter":9729,
			"minFilter":9987
		}
	],
	"buffers":[
		{
			"byteLength":46248,
			"uri":"griffin_statue.bin"
		}
	]
}
